<svg>
<symbol id="email" version="1.1"  xmlns="http://www.w3.org/2000/svg" xmlns:xlink="http://www.w3.org/1999/xlink" x="0px" y="0px"
	 viewBox="0 0 474 474" style="enable-background:new 0 0 474 474;" xml:space="preserve">
<g>
	<path d="M437.5,59.3h-401C16.4,59.3,0,75.7,0,95.8v282.4c0,20.1,16.4,36.5,36.5,36.5h401c20.1,0,36.5-16.4,36.5-36.5V95.8
		C474,75.7,457.6,59.3,437.5,59.3z M432.2,86.3L239.5,251.1L46.8,86.3H432.2z M447,378.2c0,5.2-4.3,9.5-9.5,9.5h-401
		c-5.2,0-9.5-4.3-9.5-9.5V104.9l203.7,174.2c0.1,0.1,0.3,0.2,0.4,0.3c0.1,0.1,0.3,0.2,0.4,0.3c0.3,0.2,0.5,0.4,0.8,0.5
		c0.1,0.1,0.2,0.1,0.3,0.2c0.4,0.2,0.8,0.4,1.2,0.6c0.1,0,0.2,0.1,0.3,0.1c0.3,0.1,0.6,0.3,1,0.4c0.1,0,0.3,0.1,0.4,0.1
		c0.3,0.1,0.6,0.2,0.9,0.2c0.1,0,0.3,0.1,0.4,0.1c0.3,0.1,0.7,0.1,1,0.2c0.1,0,0.2,0,0.3,0c0.4,0,0.9,0.1,1.3,0.1l0,0l0,0
		c0.4,0,0.9,0,1.3-0.1c0.1,0,0.2,0,0.3,0c0.3,0,0.7-0.1,1-0.2c0.1,0,0.3-0.1,0.4-0.1c0.3-0.1,0.6-0.2,0.9-0.2c0.1,0,0.3-0.1,0.4-0.1
		c0.3-0.1,0.6-0.2,1-0.4c0.1,0,0.2-0.1,0.3-0.1c0.4-0.2,0.8-0.4,1.2-0.6c0.1-0.1,0.2-0.1,0.3-0.2c0.3-0.2,0.5-0.3,0.8-0.5
		c0.1-0.1,0.3-0.2,0.4-0.3c0.1-0.1,0.3-0.2,0.4-0.3L447,109.2V378.2z"/>
</g>
<g>
</g>
<g>
</g>
<g>
</g>
<g>
</g>
<g>
</g>
<g>
</g>
<g>
</g>
<g>
</g>
<g>
</g>
<g>
</g>
<g>
</g>
<g>
</g>
<g>
</g>
<g>
</g>
<g>
</g>
</symbol>
<symbol id="gender" version="1.1"  xmlns="http://www.w3.org/2000/svg" xmlns:xlink="http://www.w3.org/1999/xlink" x="0px" y="0px"
	 viewBox="0 0 234.343 234.343" style="enable-background:new 0 0 234.343 234.343;" xml:space="preserve">
<g>
	<g>
		<g>
			<path d="M149.495,131.313c-22.28,0-40.404,18.124-40.404,40.404c0,2.231,1.809,4.04,4.04,4.04c2.231,0,4.04-1.809,4.04-4.04
				c0-17.823,14.501-32.323,32.323-32.323c2.231,0,4.04-1.809,4.04-4.04C153.534,133.123,151.726,131.313,149.495,131.313z"/>
			<path d="M96.969,62.626c0-22.28-18.124-40.404-40.404-40.404c-2.231,0-4.04,1.809-4.04,4.04c0,2.231,1.809,4.04,4.04,4.04
				c17.823,0.001,32.324,14.502,32.324,32.324c0,2.231,1.809,4.04,4.04,4.04S96.969,64.857,96.969,62.626z"/>
			<path d="M234.032,93.406c-0.41-0.988-1.197-1.775-2.184-2.185c-0.494-0.204-1.018-0.312-1.544-0.312H189.9
				c-2.231,0-4.04,1.809-4.04,4.04c0,2.231,1.809,4.04,4.04,4.04h30.65l-31.487,31.487c-0.163,0.163-0.238,0.371-0.367,0.553
				c-10.177-9.808-23.982-15.878-39.2-15.878c-31.191,0-56.566,25.375-56.566,56.566c0,31.191,25.375,56.566,56.566,56.566
				c31.191,0,56.566-25.375,56.566-56.566c0-13.189-4.574-25.309-12.169-34.94c0.306-0.175,0.623-0.326,0.884-0.587l31.486-31.486
				v30.65c0,2.231,1.809,4.04,4.04,4.04s4.04-1.809,4.04-4.04V94.95C234.343,94.423,234.236,93.899,234.032,93.406z M197.98,171.717
				c0,26.734-21.751,48.485-48.485,48.485s-48.485-21.751-48.485-48.485s21.751-48.485,48.485-48.485S197.98,144.983,197.98,171.717
				z"/>
			<path d="M74.971,147.475H60.606v-28.488c29.305-2.086,52.525-26.534,52.525-56.361c0-31.191-25.375-56.566-56.566-56.566
				S0,31.436,0,62.626c0,29.827,23.221,54.275,52.525,56.361v28.488H38.384c-2.231,0-4.04,1.809-4.04,4.04
				c0,2.231,1.809,4.04,4.04,4.04h14.141v12.121c0,2.231,1.809,4.04,4.04,4.04s4.04-1.809,4.04-4.04v-12.121h14.364
				c2.231,0,4.04-1.809,4.04-4.04C79.009,149.284,77.202,147.475,74.971,147.475z M56.566,111.111
				c-26.734,0-48.485-21.751-48.485-48.485s21.751-48.485,48.485-48.485c26.734,0,48.485,21.751,48.485,48.485
				S83.3,111.111,56.566,111.111z"/>
		</g>
	</g>
</g>
<g>
</g>
<g>
</g>
<g>
</g>
<g>
</g>
<g>
</g>
<g>
</g>
<g>
</g>
<g>
</g>
<g>
</g>
<g>
</g>
<g>
</g>
<g>
</g>
<g>
</g>
<g>
</g>
<g>
</g>
</symbol>
<symbol id="address" version="1.1" xmlns="http://www.w3.org/2000/svg" xmlns:xlink="http://www.w3.org/1999/xlink" x="0px" y="0px"
	 viewBox="0 0 241.644 241.644" style="enable-background:new 0 0 241.644 241.644;" xml:space="preserve">
<g>
	<g>
		<g>
			<path d="M197.808,15.912h-66.064V0h-20.696v15.912H99.296c-15.028,0-18.18,6.344-18.18,11.668v15.632
				c0,5.324,3.152,11.668,18.18,11.668h11.752v21.256H43.996l-20.6,19.972l20.628,19h67.028v110.164H76.836
				c-5.468,0-9.752,6.312-9.752,14.372v2h111.128v-2c0-8.06-4.284-14.372-9.752-14.372h-36.712v-110.16h11.42
				c15.116,0,18.288-6.344,18.288-11.668V87.812c0-5.324-3.172-11.668-18.288-11.668h-11.42V54.888h66.088v-0.004l20.412-19.972
				L197.808,15.912z M115.048,4h12.696v2.476h-12.696V4z M115.048,7.608h12.696v8.304h-12.696V7.608z M168.456,229.276v-0.004
				c2.416,0,5.072,3.348,5.64,8.372h-102.9c0.22-1.948,0.764-3.636,1.476-4.984h66.284v-1.132H73.364
				c1.028-1.432,2.28-2.252,3.472-2.252h34.216h20.696H168.456z M115.048,225.276v-0.004v-110.16h12.696v110.164H115.048z
				 M143.168,80.144V80.14c14.288,0,14.288,5.772,14.288,7.668v15.632c0,1.896,0,7.668-14.288,7.668H45.584l-4.568-4.208h25.732
				v-1.128H39.784l-6.528-6.008h11.12v-1.132H32.032l-2.816-2.592l3.524-3.416h31.728v-1.132h-30.56l6.2-6.008h8.776v-1.132h-7.608
				l4.34-4.208H143.168z M115.048,76.14V54.884h12.696V76.14H115.048z M208.12,39.22l-6.144,6.008H190.94v1.132h9.88l-4.62,4.52
				H99.3v0.004c-14.18,0-14.18-5.772-14.18-7.668V27.584c0-1.896,0-7.668,14.18-7.668h96.932l4.188,3.892h-28.064v1.132h29.284
				l6.464,6.008h-12.476v1.132h13.692l3.128,2.908l-3.168,3.1h-34.552v1.132H208.12z"/>
			<path d="M121.396,31.916c-1.916,0-3.48,1.56-3.48,3.48c0,1.92,1.564,3.48,3.48,3.48s3.48-1.56,3.48-3.48
				C124.876,33.476,123.316,31.916,121.396,31.916z M121.396,37.744c-1.292,0-2.348-1.052-2.348-2.348
				c0-1.296,1.056-2.348,2.348-2.348s2.348,1.052,2.348,2.348C123.744,36.692,122.692,37.744,121.396,37.744z"/>
			<path d="M121.396,99.104c1.916,0,3.48-1.56,3.48-3.48c0-1.92-1.564-3.48-3.48-3.48s-3.48,1.56-3.48,3.48
				C117.916,97.544,119.48,99.104,121.396,99.104z M121.396,93.276c1.292,0,2.348,1.052,2.348,2.348
				c0,1.296-1.056,2.348-2.348,2.348s-2.348-1.052-2.348-2.348C119.048,94.328,120.104,93.276,121.396,93.276z"/>
			<rect x="177.096" y="30.944" width="12.408" height="1.132"/>
			<rect x="169.976" y="45.212" width="14.824" height="1.132"/>
			<rect x="50.252" y="98.612" width="11.924" height="1.132"/>
			<rect x="54.784" y="84.344" width="14.248" height="1.132"/>
			<rect x="144.056" y="231.532" width="18.152" height="1.132"/>
		</g>
	</g>
</g>
<g>
</g>
<g>
</g>
<g>
</g>
<g>
</g>
<g>
</g>
<g>
</g>
<g>
</g>
<g>
</g>
<g>
</g>
<g>
</g>
<g>
</g>
<g>
</g>
<g>
</g>
<g>
</g>
<g>
</g>
</symbol>
<symbol id="user" version="1.1" xmlns="http://www.w3.org/2000/svg" xmlns:xlink="http://www.w3.org/1999/xlink" x="0px" y="0px"
	 viewBox="0 0 60 60" style="enable-background:new 0 0 60 60;" xml:space="preserve">
<g>
	<path d="M36,34.5v24h24v-24H36z M58,56.5H38v-20h9v11.586l-4.293-4.293l-1.414,1.414L48,51.914l6.707-6.707l-1.414-1.414L49,48.086
		V36.5h9V56.5z"/>
	<path d="M30.768,32.859c-0.002-0.003-0.064-0.078-0.165-0.21c-0.006-0.008-0.012-0.016-0.019-0.024
		c-0.053-0.069-0.115-0.153-0.186-0.251c-0.001-0.002-0.002-0.003-0.003-0.005c-0.149-0.207-0.336-0.476-0.544-0.8
		c-0.005-0.007-0.009-0.015-0.014-0.022c-0.098-0.154-0.202-0.32-0.308-0.497c-0.008-0.013-0.016-0.026-0.024-0.04
		c-0.226-0.379-0.466-0.808-0.705-1.283l-0.001-0.002c-0.127-0.254-0.254-0.523-0.378-0.802l0,0
		c-0.017-0.039-0.035-0.077-0.052-0.116h0c-0.055-0.125-0.11-0.256-0.166-0.391c-0.02-0.049-0.04-0.1-0.06-0.15
		c-0.052-0.131-0.105-0.263-0.161-0.414c-0.102-0.272-0.198-0.556-0.29-0.849l-0.055-0.178c-0.006-0.02-0.013-0.04-0.019-0.061
		c-0.094-0.316-0.184-0.639-0.26-0.971l-0.091-0.396l-0.341-0.22C26.346,24.803,26,24.176,26,23.5v-4
		c0-0.561,0.238-1.084,0.67-1.475L27,17.728V11.5v-0.354l-0.027-0.021c-0.034-0.722,0.009-2.935,1.623-4.776
		C30.253,4.458,33.081,3.5,37,3.5c3.905,0,6.727,0.951,8.386,2.828c1.947,2.201,1.625,5.017,1.623,5.041L47,17.728l0.33,0.298
		C47.762,18.415,48,18.939,48,19.5v4c0,0.873-0.571,1.637-1.422,1.899c-0.528,0.162-0.823,0.722-0.661,1.25
		c0.162,0.527,0.725,0.82,1.25,0.661C48.861,26.787,50,25.256,50,23.5v-4c0-0.963-0.359-1.897-1-2.625v-5.319
		c0.057-0.55,0.276-3.824-2.092-6.525C44.854,2.688,41.521,1.5,37,1.5s-7.854,1.188-9.908,3.53
		c-1.435,1.637-1.918,3.481-2.064,4.805C23.314,8.949,21.294,8.5,19,8.5c-10.389,0-10.994,8.855-11,9v4.579
		c-0.648,0.706-1,1.521-1,2.33v3.454c0,1.079,0.483,2.085,1.311,2.765c0.825,3.11,2.854,5.46,3.644,6.285v2.743
		c0,0.787-0.428,1.509-1.171,1.915l-6.653,4.173C1.583,47.134,0,49.801,0,52.703V56.5h14h2h11c0.552,0,1-0.447,1-1s-0.448-1-1-1H16
		v-2.238c0-2.571,1.402-4.934,3.659-6.164l8.921-4.866C30.073,40.417,31,38.854,31,37.155v-4.018v-0.001l-0.194-0.232L30.768,32.859
		z M29,37.155c0,0.968-0.528,1.856-1.377,2.32l-2.646,1.443l-0.649,0.354l-5.626,3.069c-2.9,1.582-4.701,4.616-4.701,7.92V54.5H2
		v-1.797c0-2.17,1.184-4.164,3.141-5.233l6.652-4.173c1.333-0.727,2.161-2.121,2.161-3.641v-3.591l-0.318-0.297
		c-0.026-0.024-2.683-2.534-3.468-5.955l-0.091-0.396l-0.342-0.22C9.275,28.899,9,28.4,9,27.863v-3.454
		c0-0.36,0.245-0.788,0.671-1.174L10,22.938l-0.002-5.38C10.016,17.271,10.537,10.5,19,10.5c2.393,0,4.408,0.553,6,1.644v4.731
		c-0.64,0.729-1,1.662-1,2.625v4c0,0.304,0.035,0.603,0.101,0.893c0.027,0.116,0.081,0.222,0.118,0.334
		c0.055,0.168,0.099,0.341,0.176,0.5c0.001,0.002,0.002,0.003,0.003,0.005c0.256,0.528,0.629,1,1.099,1.377
		c0.005,0.019,0.011,0.036,0.016,0.054c0.06,0.229,0.123,0.457,0.191,0.68l0.081,0.261c0.014,0.046,0.031,0.093,0.046,0.139
		c0.035,0.108,0.069,0.216,0.105,0.322c0.06,0.175,0.123,0.355,0.196,0.553c0.031,0.083,0.065,0.156,0.097,0.237
		c0.082,0.209,0.164,0.411,0.25,0.611c0.021,0.048,0.039,0.1,0.06,0.147l0.056,0.126c0.026,0.058,0.053,0.11,0.079,0.167
		c0.098,0.214,0.194,0.421,0.294,0.622c0.016,0.032,0.031,0.067,0.047,0.099c0.063,0.125,0.126,0.243,0.189,0.363
		c0.108,0.206,0.214,0.4,0.32,0.588c0.052,0.092,0.103,0.182,0.154,0.269c0.144,0.246,0.281,0.472,0.414,0.682
		c0.029,0.045,0.057,0.092,0.085,0.135c0.242,0.375,0.452,0.679,0.626,0.916c0.046,0.063,0.086,0.117,0.125,0.17
		c0.022,0.029,0.052,0.071,0.071,0.097V37.155z"/>
</g>
<g>
</g>
<g>
</g>
<g>
</g>
<g>
</g>
<g>
</g>
<g>
</g>
<g>
</g>
<g>
</g>
<g>
</g>
<g>
</g>
<g>
</g>
<g>
</g>
<g>
</g>
<g>
</g>
<g>
</g>
</symbol>

<symbol id="phone" version="1.1" xmlns="http://www.w3.org/2000/svg" xmlns:xlink="http://www.w3.org/1999/xlink" x="0px" y="0px"
	 viewBox="0 0 53.942 53.942" style="enable-background:new 0 0 53.942 53.942;" xml:space="preserve">
<g>
	<path d="M53.364,40.908c-2.008-3.796-8.981-7.912-9.288-8.092c-0.896-0.51-1.831-0.78-2.706-0.78c-1.301,0-2.366,0.596-3.011,1.68
		c-1.02,1.22-2.285,2.646-2.592,2.867c-2.376,1.612-4.236,1.429-6.294-0.629L17.987,24.467c-2.045-2.045-2.233-3.928-0.632-6.291
		c0.224-0.309,1.65-1.575,2.87-2.596c0.778-0.463,1.312-1.151,1.546-1.995c0.311-1.123,0.082-2.444-0.652-3.731
		c-0.173-0.296-4.291-7.27-8.085-9.277c-0.708-0.375-1.506-0.573-2.306-0.573c-1.318,0-2.558,0.514-3.49,1.445L4.7,3.986
		c-4.014,4.013-5.467,8.562-4.321,13.52c0.956,4.132,3.742,8.529,8.282,13.068l14.705,14.705c5.746,5.746,11.224,8.66,16.282,8.66
		c0,0,0,0,0,0c3.721,0,7.188-1.581,10.306-4.698l2.537-2.537C54.033,45.163,54.383,42.833,53.364,40.908z"/>
	<path d="M29.56,24.926c0.122,0.051,0.252,0.077,0.382,0.077h12c0.552,0,1-0.447,1-1s-0.448-1-1-1h-9.586L47.649,7.71
		c0.391-0.391,0.391-1.023,0-1.414s-1.023-0.391-1.414,0L30.942,21.589v-9.586c0-0.553-0.448-1-1-1s-1,0.447-1,1v12
		c0,0.13,0.027,0.26,0.077,0.382C29.121,24.63,29.316,24.825,29.56,24.926z"/>
</g>
<g>
</g>
<g>
</g>
<g>
</g>
<g>
</g>
<g>
</g>
<g>
</g>
<g>
</g>
<g>
</g>
<g>
</g>
<g>
</g>
<g>
</g>
<g>
</g>
<g>
</g>
<g>
</g>
<g>
</g>
</symbol>
</svg>
